<svg width="240" height="26" viewBox="0 0 240 26" fill="none" xmlns="http://www.w3.org/2000/svg">
<path d="M3.03987 10.2445C2.98407 10.0187 2.99728 9.77996 3.02812 9.65628C3.10595 9.29962 3.35414 8.90125 4.07519 8.90125C4.74484 8.90125 5.13841 9.30825 5.13841 9.91803V10.6112H7.99178V9.82454C7.99031 7.3883 5.74785 7 4.13099 7C2.09854 7 0.439092 7.66011 0.135105 9.48945C0.0513988 9.99137 0.0381819 10.4329 0.158602 10.9995C0.653499 13.2891 4.71841 13.9521 5.31023 15.4003C5.42037 15.6692 5.38806 16.0158 5.33226 16.2272C5.23827 16.604 4.97981 16.9837 4.2147 16.9837C3.49952 16.9837 3.07218 16.5767 3.07218 15.964L3.06777 14.8869H0V15.7426C0 18.2464 2.00749 19 4.15743 19C6.30736 19 7.92129 18.3097 8.19737 16.4358C8.33541 15.4693 8.23115 14.8408 8.18562 14.6021C7.70247 12.2522 3.36589 11.5547 3.03987 10.2445ZM38.2335 10.2718C38.1821 10.0503 38.1968 9.81592 38.2232 9.69223C38.3054 9.33413 38.5507 8.94295 39.26 8.94295C39.9208 8.94295 40.3071 9.34564 40.3071 9.9511V10.6357H43.1267V9.85475C43.1267 7.44151 40.918 7.06184 39.3173 7.06184C37.3024 7.06184 35.6577 7.71189 35.3566 9.52828C35.2773 10.023 35.2568 10.4616 35.3845 11.0211C35.875 13.2848 39.8988 13.942 40.4833 15.3744C40.5861 15.6462 40.5567 15.9914 40.5038 16.1956C40.4157 16.5681 40.1602 16.9434 39.401 16.9434C38.6887 16.9434 38.2614 16.5422 38.2614 15.9382V14.8639H35.2259V15.7181C35.2259 18.1932 37.2055 18.941 39.3393 18.941C41.4731 18.941 43.0694 18.2579 43.3396 16.4041C43.4688 15.4463 43.3719 14.8236 43.319 14.5877C42.8462 12.2651 38.5566 11.5676 38.232 10.2704L38.2335 10.2718ZM63.2031 16.3739L60.5098 7.35666H56.2657V18.4406H59.0736L58.9106 9.13423L61.8036 18.4406H65.8744V7.35666H63.0489L63.2046 16.3739H63.2031ZM12.2447 7.35666L10.1256 18.557H13.2154L14.8117 8.18936L16.3698 18.557H19.4375L17.3273 7.35666H12.2432H12.2447ZM28.5191 7.35666L27.0755 16.1122L25.6334 7.35666H20.9678L20.7211 18.557H23.5789L23.6567 8.18936L25.6231 18.557H28.5235L30.4913 8.18936L30.5691 18.557H33.4342L33.1787 7.35666H28.5191ZM54.0952 7.35666H51.2021V15.6419C51.2065 15.7857 51.2021 15.9482 51.1772 16.0676C51.117 16.3452 50.8761 16.8816 50.0787 16.8816C49.2813 16.8816 49.0434 16.3466 48.9876 16.0676C48.9582 15.9482 48.9553 15.7857 48.9582 15.6419V7.35666H46.0667V15.3845C46.0637 15.5916 46.0799 16.0144 46.0916 16.1251C46.2914 18.2176 47.9743 18.8965 50.0772 18.8965C52.1802 18.8965 53.8661 18.2176 54.0702 16.1251C54.0863 16.0144 54.1069 15.5916 54.0952 15.3845V7.35666ZM72.9542 12.2694V13.9032H74.1261V15.524C74.129 15.6692 74.1217 15.8245 74.0967 15.9497C74.0497 16.2517 73.7575 16.7665 72.9248 16.7665C72.0921 16.7665 71.8102 16.2517 71.7602 15.9497C71.7397 15.8245 71.7309 15.6678 71.7309 15.524V10.4056C71.7309 10.2244 71.7441 10.0259 71.7823 9.87632C71.8396 9.60307 72.0863 9.0652 72.9189 9.0652C73.7942 9.0652 74.0115 9.63183 74.0614 9.87632C74.0938 10.0374 74.0967 10.3078 74.0967 10.3078V10.9291H76.9765V10.5623C76.9765 10.5623 76.9897 10.1783 76.9545 9.82167C76.7386 7.72052 74.9705 7.05609 72.9439 7.05609C70.9173 7.05609 69.1815 7.72627 68.9289 9.82167C68.9054 10.0129 68.8716 10.3581 68.8716 10.5623V15.2709C68.8716 15.4765 68.879 15.6347 68.9172 16.0101C69.1051 18.0537 70.9129 18.7771 72.9351 18.7771C74.9573 18.7771 76.765 18.0523 76.9574 16.0101C76.9912 15.6347 76.9956 15.4765 77 15.2709V12.2694H72.9542Z" fill="white"/>
<path d="M83 5.36314H85.3342L89.1555 10.4051L93.1324 5.36314H95.3629V17.3522H93.0113V8.94343L89.1382 13.9033L85.3515 9.02555V17.3522H83V5.36314Z" fill="white"/>
<path d="M101.395 17.5493C100.784 17.5493 100.179 17.4398 99.5792 17.2208C98.9913 16.9909 98.4611 16.6624 97.9885 16.2354C97.5159 15.8084 97.1355 15.2883 96.8473 14.6752C96.5591 14.0511 96.415 13.3449 96.415 12.5566C96.415 11.7573 96.5534 11.0511 96.83 10.438C97.1182 9.81387 97.4928 9.28832 97.9539 8.86131C98.4265 8.43431 98.9625 8.11131 99.5619 7.89234C100.161 7.66241 100.784 7.54745 101.429 7.54745C102.098 7.54745 102.715 7.66788 103.279 7.90876C103.844 8.14964 104.311 8.4781 104.68 8.89416V7.74453H107.014V17.3522H104.68V16.104C104.311 16.5529 103.839 16.9088 103.262 17.1715C102.686 17.4234 102.063 17.5493 101.395 17.5493ZM101.775 15.5128C102.202 15.5128 102.599 15.4361 102.968 15.2828C103.349 15.1296 103.671 14.9161 103.936 14.6423C104.202 14.3686 104.409 14.0511 104.559 13.6898C104.72 13.3285 104.801 12.9398 104.801 12.5237C104.801 12.1186 104.72 11.7354 104.559 11.3741C104.409 11.0128 104.202 10.7007 103.936 10.438C103.671 10.1642 103.349 9.95073 102.968 9.79745C102.599 9.64416 102.202 9.56752 101.775 9.56752C101.337 9.56752 100.934 9.64416 100.565 9.79745C100.196 9.95073 99.8732 10.1588 99.5965 10.4215C99.3199 10.6843 99.1009 10.9964 98.9395 11.3577C98.7896 11.719 98.7147 12.1077 98.7147 12.5237C98.7147 12.9398 98.7896 13.3339 98.9395 13.7062C99.1009 14.0675 99.3199 14.385 99.5965 14.6588C99.8732 14.9215 100.196 15.1296 100.565 15.2828C100.934 15.4361 101.337 15.5128 101.775 15.5128Z" fill="white"/>
<path d="M116.298 16.0712C115.929 16.531 115.456 16.8923 114.88 17.1551C114.303 17.4179 113.675 17.5493 112.995 17.5493C112.384 17.5493 111.779 17.4398 111.18 17.2208C110.592 16.9909 110.061 16.6624 109.589 16.2354C109.116 15.8084 108.736 15.2883 108.448 14.6752C108.159 14.0511 108.015 13.3449 108.015 12.5566C108.015 11.7573 108.154 11.0511 108.43 10.438C108.719 9.81387 109.093 9.28832 109.554 8.86131C110.027 8.43431 110.563 8.11131 111.162 7.89234C111.762 7.66241 112.384 7.54745 113.03 7.54745C113.698 7.54745 114.315 7.67883 114.88 7.94161C115.445 8.19343 115.911 8.53832 116.28 8.97628V7.74453H118.615V17.1058C118.615 17.7847 118.499 18.4197 118.269 19.011C118.05 19.6022 117.721 20.1168 117.283 20.5547C116.845 21.0037 116.298 21.354 115.641 21.6058C114.995 21.8686 114.246 22 113.393 22C112.736 22 112.136 21.9288 111.595 21.7865C111.064 21.6551 110.586 21.4635 110.159 21.2117C109.733 20.9708 109.358 20.6807 109.035 20.3412C108.713 20.0128 108.436 19.646 108.206 19.2409L110.28 18.042C110.465 18.3595 110.655 18.6387 110.851 18.8796C111.047 19.1204 111.266 19.3175 111.508 19.4708C111.762 19.635 112.044 19.7555 112.355 19.8321C112.667 19.9197 113.024 19.9635 113.427 19.9635C113.865 19.9635 114.263 19.8869 114.62 19.7336C114.978 19.5803 115.277 19.3777 115.52 19.1259C115.773 18.8741 115.963 18.5785 116.09 18.2391C116.228 17.8996 116.298 17.5493 116.298 17.188V16.0712ZM113.375 15.5128C113.802 15.5128 114.2 15.4361 114.569 15.2828C114.949 15.1296 115.272 14.9161 115.537 14.6423C115.802 14.3686 116.009 14.0511 116.159 13.6898C116.321 13.3285 116.401 12.9398 116.401 12.5237C116.401 12.1186 116.321 11.7354 116.159 11.3741C116.009 11.0128 115.802 10.7007 115.537 10.438C115.272 10.1642 114.949 9.95073 114.569 9.79745C114.2 9.64416 113.802 9.56752 113.375 9.56752C112.937 9.56752 112.534 9.64416 112.165 9.79745C111.796 9.95073 111.473 10.1588 111.197 10.4215C110.92 10.6843 110.701 10.9964 110.54 11.3577C110.39 11.719 110.315 12.1077 110.315 12.5237C110.315 12.9398 110.39 13.3339 110.54 13.7062C110.701 14.0675 110.92 14.385 111.197 14.6588C111.473 14.9215 111.796 15.1296 112.165 15.2828C112.534 15.4361 112.937 15.5128 113.375 15.5128Z" fill="white"/>
<path d="M119.894 7.74453H122.245V17.3522H119.894V7.74453ZM119.6 5.39599C119.6 4.97993 119.732 4.64599 119.997 4.39416C120.262 4.13139 120.62 4 121.069 4C121.53 4 121.888 4.13139 122.141 4.39416C122.406 4.64599 122.539 4.97993 122.539 5.39599C122.539 5.81204 122.406 6.14598 122.141 6.39781C121.888 6.64963 121.53 6.77555 121.069 6.77555C120.597 6.77555 120.234 6.64963 119.98 6.39781C119.726 6.14598 119.6 5.81204 119.6 5.39599Z" fill="white"/>
<path d="M128.519 17.5493C127.782 17.5493 127.09 17.4179 126.444 17.1551C125.81 16.8923 125.257 16.5365 124.785 16.0876C124.312 15.6387 123.937 15.1131 123.661 14.511C123.395 13.8978 123.263 13.2464 123.263 12.5566C123.263 11.8558 123.395 11.2044 123.661 10.6022C123.937 9.98905 124.312 9.45803 124.785 9.00912C125.257 8.54927 125.81 8.19343 126.444 7.94161C127.09 7.67883 127.782 7.54745 128.519 7.54745C129.084 7.54745 129.614 7.62409 130.11 7.77737C130.617 7.91971 131.078 8.12226 131.493 8.38504C131.908 8.64781 132.271 8.95985 132.583 9.32117C132.894 9.68248 133.147 10.0821 133.343 10.5201L131.251 11.3577C131.021 10.8321 130.663 10.4161 130.179 10.1095C129.707 9.79197 129.159 9.63321 128.537 9.63321C128.11 9.63321 127.712 9.70985 127.344 9.86314C126.986 10.0164 126.669 10.2245 126.393 10.4872C126.127 10.75 125.92 11.062 125.77 11.4234C125.62 11.7737 125.545 12.1515 125.545 12.5566C125.545 12.9507 125.62 13.3285 125.77 13.6898C125.92 14.0401 126.127 14.3467 126.393 14.6095C126.669 14.8723 126.986 15.0803 127.344 15.2336C127.712 15.3869 128.116 15.4635 128.554 15.4635C129.211 15.4635 129.77 15.2993 130.231 14.9708C130.704 14.6314 131.055 14.1989 131.286 13.6734L133.378 14.5274C133.182 14.9763 132.928 15.3869 132.617 15.7591C132.306 16.1204 131.943 16.438 131.528 16.7117C131.124 16.9745 130.669 17.1825 130.162 17.3358C129.655 17.4781 129.107 17.5493 128.519 17.5493Z" fill="white"/>
<path d="M134.263 7.74453H136.615V17.3522H134.263V7.74453ZM133.969 5.39599C133.969 4.97993 134.102 4.64599 134.367 4.39416C134.632 4.13139 134.989 4 135.439 4C135.9 4 136.257 4.13139 136.511 4.39416C136.776 4.64599 136.909 4.97993 136.909 5.39599C136.909 5.81204 136.776 6.14598 136.511 6.39781C136.257 6.64963 135.9 6.77555 135.439 6.77555C134.966 6.77555 134.603 6.64963 134.35 6.39781C134.096 6.14598 133.969 5.81204 133.969 5.39599Z" fill="white"/>
<path d="M142.612 17.5493C142.001 17.5493 141.396 17.4398 140.797 17.2208C140.209 16.9909 139.679 16.6624 139.206 16.2354C138.733 15.8084 138.353 15.2883 138.065 14.6752C137.777 14.0511 137.632 13.3449 137.632 12.5566C137.632 11.7573 137.771 11.0511 138.047 10.438C138.336 9.81387 138.71 9.28832 139.171 8.86131C139.644 8.43431 140.18 8.11131 140.779 7.89234C141.379 7.66241 142.001 7.54745 142.647 7.54745C143.315 7.54745 143.932 7.66788 144.497 7.90876C145.062 8.14964 145.529 8.4781 145.897 8.89416V7.74453H148.232V17.3522H145.897V16.104C145.529 16.5529 145.056 16.9088 144.48 17.1715C143.903 17.4234 143.281 17.5493 142.612 17.5493ZM142.993 15.5128C143.419 15.5128 143.817 15.4361 144.186 15.2828C144.566 15.1296 144.889 14.9161 145.154 14.6423C145.419 14.3686 145.627 14.0511 145.776 13.6898C145.938 13.3285 146.018 12.9398 146.018 12.5237C146.018 12.1186 145.938 11.7354 145.776 11.3741C145.627 11.0128 145.419 10.7007 145.154 10.438C144.889 10.1642 144.566 9.95073 144.186 9.79745C143.817 9.64416 143.419 9.56752 142.993 9.56752C142.555 9.56752 142.151 9.64416 141.782 9.79745C141.413 9.95073 141.091 10.1588 140.814 10.4215C140.537 10.6843 140.318 10.9964 140.157 11.3577C140.007 11.719 139.932 12.1077 139.932 12.5237C139.932 12.9398 140.007 13.3339 140.157 13.7062C140.318 14.0675 140.537 14.385 140.814 14.6588C141.091 14.9215 141.413 15.1296 141.782 15.2828C142.151 15.4361 142.555 15.5128 142.993 15.5128Z" fill="white"/>
<path d="M149.646 7.74453H151.963V8.92701C152.297 8.51095 152.718 8.17701 153.225 7.92518C153.744 7.67336 154.332 7.54745 154.989 7.54745C156.245 7.54745 157.225 7.90876 157.928 8.63139C158.643 9.35401 159 10.3613 159 11.6533V17.3522H156.631V11.8832C156.631 11.1387 156.441 10.5529 156.061 10.1259C155.68 9.68796 155.11 9.46898 154.349 9.46898C153.68 9.46898 153.115 9.69343 152.654 10.1423C152.205 10.5912 151.98 11.2372 151.98 12.0803V17.3522H149.646V7.74453Z" fill="white"/>
<path d="M165.672 7.32H167.848V16.92H172.12V19H165.672V7.32ZM177.397 19.192C176.831 19.192 176.271 19.0853 175.717 18.872C175.173 18.648 174.682 18.328 174.245 17.912C173.807 17.496 173.455 16.9893 173.189 16.392C172.922 15.784 172.789 15.096 172.789 14.328C172.789 13.5493 172.917 12.8613 173.173 12.264C173.439 11.656 173.786 11.144 174.213 10.728C174.65 10.312 175.146 9.99733 175.701 9.784C176.255 9.56 176.831 9.448 177.429 9.448C178.047 9.448 178.618 9.56533 179.141 9.8C179.663 10.0347 180.095 10.3547 180.437 10.76V9.64H182.597V19H180.437V17.784C180.095 18.2213 179.658 18.568 179.125 18.824C178.591 19.0693 178.015 19.192 177.397 19.192ZM177.749 17.208C178.143 17.208 178.511 17.1333 178.853 16.984C179.205 16.8347 179.503 16.6267 179.749 16.36C179.994 16.0933 180.186 15.784 180.325 15.432C180.474 15.08 180.549 14.7013 180.549 14.296C180.549 13.9013 180.474 13.528 180.325 13.176C180.186 12.824 179.994 12.52 179.749 12.264C179.503 11.9973 179.205 11.7893 178.853 11.64C178.511 11.4907 178.143 11.416 177.749 11.416C177.343 11.416 176.97 11.4907 176.629 11.64C176.287 11.7893 175.989 11.992 175.733 12.248C175.477 12.504 175.274 12.808 175.125 13.16C174.986 13.512 174.917 13.8907 174.917 14.296C174.917 14.7013 174.986 15.0853 175.125 15.448C175.274 15.8 175.477 16.1093 175.733 16.376C175.989 16.632 176.287 16.8347 176.629 16.984C176.97 17.1333 177.343 17.208 177.749 17.208ZM192.259 19H190.115V17.928C189.816 18.3227 189.443 18.632 188.995 18.856C188.547 19.08 188.024 19.192 187.427 19.192C186.872 19.192 186.371 19.1013 185.923 18.92C185.486 18.7387 185.107 18.4773 184.787 18.136C184.478 17.784 184.238 17.3627 184.067 16.872C183.907 16.3813 183.827 15.8213 183.827 15.192V9.64H186.019V14.968C186.019 15.6933 186.179 16.2693 186.499 16.696C186.83 17.112 187.336 17.32 188.019 17.32C188.616 17.32 189.112 17.1013 189.507 16.664C189.902 16.2267 190.099 15.5973 190.099 14.776V9.64H192.259V19ZM193.593 9.64H195.737V10.792C196.046 10.3867 196.435 10.0613 196.905 9.816C197.385 9.57067 197.929 9.448 198.537 9.448C199.699 9.448 200.606 9.8 201.257 10.504C201.918 11.208 202.249 12.1893 202.249 13.448V19H200.057V13.672C200.057 12.9467 199.881 12.376 199.529 11.96C199.177 11.5333 198.649 11.32 197.945 11.32C197.326 11.32 196.803 11.5387 196.377 11.976C195.961 12.4133 195.753 13.0427 195.753 13.864V19H193.593V9.64ZM208.059 19.192C207.376 19.192 206.736 19.064 206.139 18.808C205.552 18.552 205.04 18.2053 204.603 17.768C204.166 17.3307 203.819 16.8187 203.563 16.232C203.318 15.6347 203.195 15 203.195 14.328C203.195 13.6453 203.318 13.0107 203.563 12.424C203.819 11.8267 204.166 11.3093 204.603 10.872C205.04 10.424 205.552 10.0773 206.139 9.832C206.736 9.576 207.376 9.448 208.059 9.448C208.582 9.448 209.072 9.52267 209.531 9.672C210 9.81067 210.427 10.008 210.811 10.264C211.195 10.52 211.531 10.824 211.819 11.176C212.107 11.528 212.342 11.9173 212.523 12.344L210.587 13.16C210.374 12.648 210.043 12.2427 209.595 11.944C209.158 11.6347 208.651 11.48 208.075 11.48C207.68 11.48 207.312 11.5547 206.971 11.704C206.64 11.8533 206.347 12.056 206.091 12.312C205.846 12.568 205.654 12.872 205.515 13.224C205.376 13.5653 205.307 13.9333 205.307 14.328C205.307 14.712 205.376 15.08 205.515 15.432C205.654 15.7733 205.846 16.072 206.091 16.328C206.347 16.584 206.64 16.7867 206.971 16.936C207.312 17.0853 207.686 17.16 208.091 17.16C208.699 17.16 209.216 17 209.643 16.68C210.08 16.3493 210.406 15.928 210.619 15.416L212.555 16.248C212.374 16.6853 212.139 17.0853 211.851 17.448C211.563 17.8 211.227 18.1093 210.843 18.376C210.47 18.632 210.048 18.8347 209.579 18.984C209.11 19.1227 208.603 19.192 208.059 19.192ZM213.374 7.16H215.534V10.76C215.854 10.3547 216.249 10.0347 216.718 9.8C217.198 9.56533 217.737 9.448 218.334 9.448C219.497 9.448 220.403 9.8 221.054 10.504C221.715 11.208 222.046 12.1893 222.046 13.448V19H219.838V13.688C219.838 12.952 219.662 12.376 219.31 11.96C218.958 11.5333 218.43 11.32 217.726 11.32C217.417 11.32 217.129 11.3787 216.862 11.496C216.606 11.6027 216.377 11.768 216.174 11.992C215.982 12.2053 215.827 12.472 215.71 12.792C215.603 13.1013 215.55 13.4587 215.55 13.864V19H213.374V7.16ZM227.92 19.192C227.184 19.192 226.512 19.0693 225.904 18.824C225.296 18.568 224.774 18.2213 224.336 17.784C223.91 17.3467 223.574 16.8347 223.328 16.248C223.094 15.6507 222.976 15.016 222.976 14.344C222.976 13.6613 223.099 13.0213 223.344 12.424C223.6 11.8267 223.947 11.3093 224.384 10.872C224.822 10.4347 225.334 10.088 225.92 9.832C226.518 9.576 227.158 9.448 227.84 9.448C228.534 9.448 229.174 9.57067 229.76 9.816C230.358 10.0507 230.87 10.3867 231.296 10.824C231.723 11.2507 232.054 11.7573 232.288 12.344C232.534 12.9307 232.656 13.5707 232.656 14.264V15.08H225.04C225.19 15.7413 225.515 16.2747 226.016 16.68C226.518 17.0853 227.152 17.288 227.92 17.288C228.528 17.288 229.056 17.1387 229.504 16.84C229.952 16.5413 230.288 16.1413 230.512 15.64L232.288 16.664C231.883 17.4213 231.312 18.0347 230.576 18.504C229.851 18.9627 228.966 19.192 227.92 19.192ZM227.84 11.352C227.19 11.352 226.624 11.528 226.144 11.88C225.675 12.232 225.344 12.696 225.152 13.272H230.464C230.304 12.6427 229.995 12.168 229.536 11.848C229.078 11.5173 228.512 11.352 227.84 11.352ZM233.624 9.64H235.768V11.032C236.195 10.104 236.995 9.64 238.168 9.64C238.509 9.64 238.813 9.67733 239.08 9.752C239.357 9.82667 239.603 9.92267 239.816 10.04L239 12.088C238.84 11.9813 238.659 11.896 238.456 11.832C238.264 11.7573 238.013 11.72 237.704 11.72C237.075 11.72 236.595 11.9013 236.264 12.264C235.944 12.616 235.784 13.1973 235.784 14.008V19H233.624V9.64Z" fill="white"/>
</svg>
